<svg xmlns="http://www.w3.org/2000/svg" width="400" height="300"><defs><linearGradient id="sky" x1="0" y1="0" x2="0" y2="1"><stop offset="0" stop-color="#3a5a40"/><stop offset="1" stop-color="#83c5be"/></linearGradient><linearGradient id="sea" x1="0" y1="0" x2="0" y2="1"><stop offset="0" stop-color="#83c5be"/><stop offset="1" stop-color="#3a5a40"/></linearGradient><radialGradient id="glow" cx="0.5" cy="0.45" r="0.5"><stop offset="0" stop-color="#d871a9" stop-opacity="0.95"/><stop offset="1" stop-color="#d871a9" stop-opacity="0"/></radialGradient></defs><rect width="400" height="300" fill="url(#sky)"/><circle cx="84" cy="44" r="0.8" fill="#fff3d6" opacity="0.9"/><circle cx="225" cy="36" r="1.2" fill="#fff3d6" opacity="0.4"/><circle cx="137" cy="85" r="1.6" fill="#fff3d6" opacity="0.7"/><circle cx="77" cy="77" r="1.2" fill="#fff3d6" opacity="0.7"/><circle cx="166" cy="86" r="1.6" fill="#fff3d6" opacity="0.9"/><circle cx="32" cy="64" r="0.8" fill="#fff3d6" opacity="0.7"/><circle cx="143" cy="45" r="1.6" fill="#fff3d6" opacity="0.7"/><circle cx="295" cy="120" r="1.2" fill="#fff3d6" opacity="0.9"/><circle cx="190" cy="111" r="1.2" fill="#fff3d6" opacity="0.4"/><circle cx="54" cy="38" r="0.8" fill="#fff3d6" opacity="0.9"/><circle cx="139" cy="83" r="1.6" fill="#fff3d6" opacity="0.4"/><circle cx="74" cy="72" r="1.6" fill="#fff3d6" opacity="0.7"/><circle cx="55" cy="19" r="1.2" fill="#fff3d6" opacity="0.9"/><circle cx="102" cy="91" r="1.2" fill="#fff3d6" opacity="0.9"/><circle cx="26" cy="66" r="0.8" fill="#fff3d6" opacity="0.4"/><circle cx="192" cy="117" r="0.8" fill="#fff3d6" opacity="0.7"/><circle cx="50" cy="39" r="1.6" fill="#fff3d6" opacity="0.4"/><circle cx="292" cy="61" r="1.6" fill="#fff3d6" opacity="0.4"/><circle cx="168" cy="12" r="1.2" fill="#fff3d6" opacity="0.9"/><circle cx="208" cy="83" r="0.8" fill="#fff3d6" opacity="0.7"/><circle cx="325" cy="39" r="1.2" fill="#fff3d6" opacity="0.9"/><circle cx="233" cy="45" r="1.2" fill="#fff3d6" opacity="0.7"/><circle cx="316" cy="34" r="1.6" fill="#fff3d6" opacity="0.9"/><circle cx="347" cy="31" r="0.8" fill="#fff3d6" opacity="0.9"/><circle cx="45" cy="79" r="1.2" fill="#fff3d6" opacity="0.4"/><circle cx="202" cy="20" r="0.8" fill="#fff3d6" opacity="0.4"/><circle cx="300" cy="78" r="34" fill="#fff3d6" opacity="0.92"/><circle cx="312" cy="70" r="30" fill="url(#sky)"/><ellipse cx="200" cy="150" rx="150" ry="70" fill="url(#glow)"/><path d="M0 190 Q60 150 120 185 T240 180 T400 175 V300 H0 Z" fill="url(#sea)"/><path d="M0 215 Q80 195 160 212 T320 208 T400 210 V300 H0 Z" fill="#3a5a40" opacity="0.85"/><path d="M150 185 q28 -90 64 -118 q8 38 -6 64 q30 -8 44 -30 q4 50 -38 76 q-34 16 -64 8 Z" fill="#3a5a40" stroke="#d871a9" stroke-width="2.5" opacity="0.95"/><circle cx="206" cy="98" r="3.4" fill="#d871a9"/><path d="M40 245 l26 -10 6 -22 8 20 24 4 -20 12 2 24 -18 -14 -22 8 6 -20 Z" fill="#d871a9" opacity="0.25"/><text x="50%" y="286" text-anchor="middle" font-family="Georgia" font-size="15" letter-spacing="1.5" fill="#fff3d6">Ember Roast</text></svg>