<svg xmlns="http://www.w3.org/2000/svg" width="400" height="300"><defs><linearGradient id="sky" x1="0" y1="0" x2="0" y2="1"><stop offset="0" stop-color="#16324f"/><stop offset="1" stop-color="#9bc1bc"/></linearGradient><linearGradient id="sea" x1="0" y1="0" x2="0" y2="1"><stop offset="0" stop-color="#9bc1bc"/><stop offset="1" stop-color="#16324f"/></linearGradient><radialGradient id="glow" cx="0.5" cy="0.45" r="0.5"><stop offset="0" stop-color="#e9a13b" stop-opacity="0.95"/><stop offset="1" stop-color="#e9a13b" stop-opacity="0"/></radialGradient></defs><rect width="400" height="300" fill="#f4ecd8"/><rect x="8" y="8" width="384" height="284" fill="none" stroke="#16324f" stroke-width="2" opacity="0.6"/><rect x="13" y="13" width="374" height="274" fill="none" stroke="#16324f" stroke-width="0.8" opacity="0.5"/><path d="M0 250 Q70 180 130 215 Q190 248 235 200 Q280 156 340 190 Q372 206 400 188 V300 H0 Z" fill="#9bc1bc" opacity="0.55"/><path d="M30 70 q40 -18 84 -6 q50 14 60 52 q-36 22 -86 12 q-50 -10 -62 -34 q-4 -14 4 -24 Z" fill="#16324f" opacity="0.14"/><path d="M60 240 q60 -30 120 -10" stroke="#16324f" stroke-width="1.4" stroke-dasharray="5 4" fill="none"/><g><circle cx="120" cy="95" r="5.5" fill="#e9a13b"/><circle cx="120" cy="95" r="9" fill="none" stroke="#e9a13b" stroke-width="1" opacity="0.5"/><text x="133" y="99" font-size="11" font-family="Georgia" fill="#16324f">Drowned Shrine</text></g><g><circle cx="236" cy="150" r="5.5" fill="#e9a13b"/><circle cx="236" cy="150" r="9" fill="none" stroke="#e9a13b" stroke-width="1" opacity="0.5"/><text x="249" y="154" font-size="11" font-family="Georgia" fill="#16324f">Greyharbor</text></g><g><circle cx="96" cy="208" r="5.5" fill="#e9a13b"/><circle cx="96" cy="208" r="9" fill="none" stroke="#e9a13b" stroke-width="1" opacity="0.5"/><text x="109" y="212" font-size="11" font-family="Georgia" fill="#16324f">Gull Point</text></g><g><circle cx="300" cy="90" r="5.5" fill="#e9a13b"/><circle cx="300" cy="90" r="9" fill="none" stroke="#e9a13b" stroke-width="1" opacity="0.5"/><text x="313" y="94" font-size="11" font-family="Georgia" fill="#16324f">the Wreck</text></g><g transform="translate(350,245)"><circle r="16" fill="none" stroke="#16324f" stroke-width="1.6"/><path d="M0 -14 L4 0 L0 14 L-4 0 Z" fill="#e9a13b"/><text x="-4" y="-20" font-size="11" font-family="Georgia" fill="#16324f">N</text></g><text x="20" y="282" font-size="10.5" font-family="Georgia" font-style="italic" fill="#16324f" opacity="0.85">shadowed regions = blockers · dotted route = current sprint · horizon = deadline</text><text x="50%" y="286" text-anchor="middle" font-family="Georgia" font-size="15" letter-spacing="1.5" fill="#16324f">Project overview — Pizza Website</text></svg>