<svg xmlns="http://www.w3.org/2000/svg" width="400" height="300"><defs><linearGradient id="sky" x1="0" y1="0" x2="0" y2="1"><stop offset="0" stop-color="#16324f"/><stop offset="1" stop-color="#9bc1bc"/></linearGradient><linearGradient id="sea" x1="0" y1="0" x2="0" y2="1"><stop offset="0" stop-color="#9bc1bc"/><stop offset="1" stop-color="#16324f"/></linearGradient><radialGradient id="glow" cx="0.5" cy="0.45" r="0.5"><stop offset="0" stop-color="#e9a13b" stop-opacity="0.95"/><stop offset="1" stop-color="#e9a13b" stop-opacity="0"/></radialGradient></defs><rect width="400" height="300" fill="url(#sky)"/><circle cx="343" cy="9" r="1.2" fill="#f4ecd8" opacity="0.4"/><circle cx="308" cy="69" r="0.8" fill="#f4ecd8" opacity="0.4"/><circle cx="28" cy="115" r="1.6" fill="#f4ecd8" opacity="0.7"/><circle cx="83" cy="20" r="1.2" fill="#f4ecd8" opacity="0.7"/><circle cx="165" cy="26" r="1.2" fill="#f4ecd8" opacity="0.7"/><circle cx="152" cy="83" r="1.6" fill="#f4ecd8" opacity="0.7"/><circle cx="368" cy="80" r="1.2" fill="#f4ecd8" opacity="0.9"/><circle cx="274" cy="67" r="0.8" fill="#f4ecd8" opacity="0.4"/><circle cx="253" cy="22" r="1.6" fill="#f4ecd8" opacity="0.9"/><circle cx="351" cy="10" r="1.6" fill="#f4ecd8" opacity="0.9"/><circle cx="229" cy="92" r="1.2" fill="#f4ecd8" opacity="0.4"/><circle cx="264" cy="47" r="1.2" fill="#f4ecd8" opacity="0.4"/><circle cx="136" cy="119" r="1.6" fill="#f4ecd8" opacity="0.4"/><circle cx="16" cy="118" r="1.6" fill="#f4ecd8" opacity="0.4"/><circle cx="88" cy="100" r="1.2" fill="#f4ecd8" opacity="0.9"/><circle cx="139" cy="10" r="1.2" fill="#f4ecd8" opacity="0.9"/><circle cx="223" cy="84" r="0.8" fill="#f4ecd8" opacity="0.7"/><circle cx="243" cy="85" r="1.2" fill="#f4ecd8" opacity="0.7"/><circle cx="177" cy="104" r="1.2" fill="#f4ecd8" opacity="0.4"/><circle cx="201" cy="18" r="1.6" fill="#f4ecd8" opacity="0.4"/><circle cx="229" cy="80" r="1.2" fill="#f4ecd8" opacity="0.4"/><circle cx="290" cy="80" r="0.8" fill="#f4ecd8" opacity="0.4"/><circle cx="66" cy="24" r="1.6" fill="#f4ecd8" opacity="0.4"/><circle cx="217" cy="109" r="0.8" fill="#f4ecd8" opacity="0.7"/><circle cx="70" cy="54" r="1.6" fill="#f4ecd8" opacity="0.9"/><circle cx="17" cy="58" r="1.2" fill="#f4ecd8" opacity="0.4"/><ellipse cx="200" cy="135" rx="120" ry="105" fill="url(#glow)" opacity="0.8"/><path d="M120 300 q-6 -90 34 -126 q-18 -36 8 -68 q22 -28 48 -22 q30 6 40 36 q10 28 -8 54 q40 34 36 126 Z" fill="#16324f"/><path d="M150 110 q10 -44 50 -40 q36 4 38 44 q2 30 -22 44 q-44 10 -58 -14 q-10 -16 -8 -34 Z" fill="#9bc1bc"/><path d="M148 132 q52 26 102 -2" stroke="#e9a13b" stroke-width="3" fill="none"/><path d="M118 298 q4 -82 36 -118" stroke="#e9a13b" stroke-width="2.4" fill="none" opacity="0.85"/><circle cx="246" cy="106" r="4" fill="#e9a13b"/><text x="50%" y="286" text-anchor="middle" font-family="Georgia" font-size="15" letter-spacing="1.5" fill="#f4ecd8">Pell the smuggler-captain</text></svg>