<svg xmlns="http://www.w3.org/2000/svg" width="400" height="300"><defs><linearGradient id="sky" x1="0" y1="0" x2="0" y2="1"><stop offset="0" stop-color="#16324f"/><stop offset="1" stop-color="#9bc1bc"/></linearGradient><linearGradient id="sea" x1="0" y1="0" x2="0" y2="1"><stop offset="0" stop-color="#9bc1bc"/><stop offset="1" stop-color="#16324f"/></linearGradient><radialGradient id="glow" cx="0.5" cy="0.45" r="0.5"><stop offset="0" stop-color="#e9a13b" stop-opacity="0.95"/><stop offset="1" stop-color="#e9a13b" stop-opacity="0"/></radialGradient></defs><rect width="400" height="300" fill="url(#sky)"/><circle cx="242" cy="96" r="0.8" fill="#f4ecd8" opacity="0.9"/><circle cx="39" cy="14" r="1.2" fill="#f4ecd8" opacity="0.9"/><circle cx="240" cy="30" r="1.6" fill="#f4ecd8" opacity="0.4"/><circle cx="127" cy="40" r="1.6" fill="#f4ecd8" opacity="0.7"/><circle cx="191" cy="99" r="1.6" fill="#f4ecd8" opacity="0.7"/><circle cx="312" cy="9" r="1.2" fill="#f4ecd8" opacity="0.4"/><circle cx="359" cy="74" r="1.6" fill="#f4ecd8" opacity="0.4"/><circle cx="322" cy="31" r="1.6" fill="#f4ecd8" opacity="0.7"/><circle cx="236" cy="63" r="1.2" fill="#f4ecd8" opacity="0.7"/><circle cx="31" cy="64" r="1.6" fill="#f4ecd8" opacity="0.7"/><circle cx="255" cy="96" r="0.8" fill="#f4ecd8" opacity="0.7"/><circle cx="213" cy="88" r="1.6" fill="#f4ecd8" opacity="0.7"/><circle cx="92" cy="86" r="1.2" fill="#f4ecd8" opacity="0.9"/><circle cx="312" cy="15" r="1.6" fill="#f4ecd8" opacity="0.7"/><circle cx="49" cy="111" r="0.8" fill="#f4ecd8" opacity="0.4"/><circle cx="256" cy="116" r="1.2" fill="#f4ecd8" opacity="0.7"/><circle cx="88" cy="95" r="1.6" fill="#f4ecd8" opacity="0.9"/><circle cx="357" cy="66" r="1.2" fill="#f4ecd8" opacity="0.4"/><circle cx="81" cy="47" r="1.6" fill="#f4ecd8" opacity="0.7"/><circle cx="154" cy="8" r="1.6" fill="#f4ecd8" opacity="0.9"/><circle cx="49" cy="61" r="0.8" fill="#f4ecd8" opacity="0.7"/><circle cx="122" cy="70" r="0.8" fill="#f4ecd8" opacity="0.7"/><circle cx="21" cy="43" r="1.2" fill="#f4ecd8" opacity="0.7"/><circle cx="276" cy="49" r="1.2" fill="#f4ecd8" opacity="0.7"/><circle cx="60" cy="78" r="1.6" fill="#f4ecd8" opacity="0.9"/><circle cx="194" cy="40" r="0.8" fill="#f4ecd8" opacity="0.7"/><ellipse cx="200" cy="135" rx="120" ry="105" fill="url(#glow)" opacity="0.8"/><path d="M120 300 q-6 -90 34 -126 q-18 -36 8 -68 q22 -28 48 -22 q30 6 40 36 q10 28 -8 54 q40 34 36 126 Z" fill="#16324f"/><path d="M150 110 q10 -44 50 -40 q36 4 38 44 q2 30 -22 44 q-44 10 -58 -14 q-10 -16 -8 -34 Z" fill="#9bc1bc"/><path d="M148 132 q52 26 102 -2" stroke="#e9a13b" stroke-width="3" fill="none"/><path d="M118 298 q4 -82 36 -118" stroke="#e9a13b" stroke-width="2.4" fill="none" opacity="0.85"/><circle cx="246" cy="106" r="4" fill="#e9a13b"/><text x="50%" y="286" text-anchor="middle" font-family="Georgia" font-size="15" letter-spacing="1.5" fill="#f4ecd8">Odric the tide-priest</text></svg>