<svg xmlns="http://www.w3.org/2000/svg" width="400" height="300"><defs><linearGradient id="sky" x1="0" y1="0" x2="0" y2="1"><stop offset="0" stop-color="#16324f"/><stop offset="1" stop-color="#9bc1bc"/></linearGradient><linearGradient id="sea" x1="0" y1="0" x2="0" y2="1"><stop offset="0" stop-color="#9bc1bc"/><stop offset="1" stop-color="#16324f"/></linearGradient><radialGradient id="glow" cx="0.5" cy="0.45" r="0.5"><stop offset="0" stop-color="#e9a13b" stop-opacity="0.95"/><stop offset="1" stop-color="#e9a13b" stop-opacity="0"/></radialGradient></defs><rect width="400" height="300" fill="url(#sky)"/><circle cx="144" cy="24" r="1.6" fill="#f4ecd8" opacity="0.9"/><circle cx="242" cy="95" r="1.6" fill="#f4ecd8" opacity="0.4"/><circle cx="195" cy="110" r="0.8" fill="#f4ecd8" opacity="0.9"/><circle cx="371" cy="62" r="1.6" fill="#f4ecd8" opacity="0.9"/><circle cx="235" cy="30" r="0.8" fill="#f4ecd8" opacity="0.9"/><circle cx="160" cy="76" r="1.2" fill="#f4ecd8" opacity="0.9"/><circle cx="283" cy="16" r="1.6" fill="#f4ecd8" opacity="0.7"/><circle cx="283" cy="61" r="0.8" fill="#f4ecd8" opacity="0.4"/><circle cx="223" cy="85" r="0.8" fill="#f4ecd8" opacity="0.4"/><circle cx="223" cy="56" r="1.2" fill="#f4ecd8" opacity="0.4"/><circle cx="74" cy="63" r="1.2" fill="#f4ecd8" opacity="0.4"/><circle cx="331" cy="48" r="1.6" fill="#f4ecd8" opacity="0.7"/><circle cx="362" cy="60" r="1.2" fill="#f4ecd8" opacity="0.7"/><circle cx="223" cy="67" r="1.2" fill="#f4ecd8" opacity="0.4"/><circle cx="334" cy="24" r="1.2" fill="#f4ecd8" opacity="0.7"/><circle cx="288" cy="18" r="1.2" fill="#f4ecd8" opacity="0.7"/><circle cx="373" cy="35" r="1.2" fill="#f4ecd8" opacity="0.4"/><circle cx="378" cy="97" r="1.2" fill="#f4ecd8" opacity="0.4"/><circle cx="117" cy="57" r="1.6" fill="#f4ecd8" opacity="0.9"/><circle cx="370" cy="36" r="0.8" fill="#f4ecd8" opacity="0.7"/><circle cx="324" cy="18" r="0.8" fill="#f4ecd8" opacity="0.7"/><circle cx="178" cy="15" r="1.2" fill="#f4ecd8" opacity="0.4"/><circle cx="330" cy="73" r="1.6" fill="#f4ecd8" opacity="0.4"/><circle cx="311" cy="83" r="1.2" fill="#f4ecd8" opacity="0.4"/><circle cx="136" cy="20" r="1.6" fill="#f4ecd8" opacity="0.4"/><circle cx="50" cy="96" r="0.8" fill="#f4ecd8" opacity="0.7"/><ellipse cx="200" cy="160" rx="170" ry="70" fill="url(#glow)" opacity="0.6"/><path d="M0 226 Q100 200 200 222 T400 218 V300 H0 Z" fill="#16324f"/><line x1="60" y1="120" x2="340" y2="120" stroke="#e9a13b" stroke-width="1.4" opacity="0.9"/><line x1="60" y1="186" x2="340" y2="186" stroke="#e9a13b" stroke-width="1.4" opacity="0.9"/><circle cx="200" cy="120" r="3.4" fill="#e9a13b"/><circle cx="200" cy="186" r="3.4" fill="#e9a13b"/><text x="50%" y="160" text-anchor="middle" font-family="Georgia" font-size="21" letter-spacing="1.5" fill="#e9a13b">Session One — Ember Tides</text></svg>